Coordinates
version=1
nRows=49
nColumns=12
inDegrees=yes

Units are S.I. units (second, meters, Newtons, ...)
Angles are in degrees

endheader
time	SC_y	SC_z	SC_x	AC_y	AC_z	AC_x	GH_y	GH_z	GH_yy	EL_x	PS_y
       0.0              -17.49          25.47          19.49          39.99         -17.75         -1.333          69.27          9.138         -98.12          14.91          16.84
   0.01585               -17.5          25.47          19.49          39.99         -17.75         -1.335          69.24          9.142         -98.08          14.91          16.85
    0.0317               -17.5          25.48          19.49          39.98         -17.75         -1.337          69.21          9.147         -98.05          14.92          16.85
   0.04755              -17.51          25.48          19.49          39.98         -17.75          -1.34          69.17          9.153          -98.0          14.92          16.86
    0.0634              -17.52          25.48          19.48          39.98         -17.74         -1.343          69.14          9.158         -97.96          14.92          16.87
   0.07926              -17.52          25.48          19.48          39.98         -17.74         -1.345           69.1          9.164         -97.91          14.92          16.87
   0.09511              -17.53          25.49          19.48          39.98         -17.74         -1.348          69.05          9.171         -97.87          14.92          16.88
     0.111              -17.54          25.49          19.47          39.98         -17.73         -1.352          69.01          9.178         -97.81          14.93          16.89
    0.1268              -17.55          25.49          19.47          39.98         -17.73         -1.355          68.96          9.185         -97.76          14.93          16.89
    0.1427              -17.56          25.49          19.47          39.98         -17.73         -1.359           68.9          9.193          -97.7          14.93           16.9
    0.1585              -17.56           25.5          19.46          39.98         -17.72         -1.363          68.85          9.202         -97.63          14.93          16.91
    0.1744              -17.58           25.5          19.46          39.98         -17.72         -1.367          68.79          9.211         -97.56          14.94          16.92
    0.1902              -17.59           25.5          19.45          39.97         -17.72         -1.372          68.72          9.221         -97.48          14.94          16.93
    0.2061               -17.6          25.51          19.45          39.97         -17.71         -1.377          68.65          9.231          -97.4          14.94          16.94
    0.2219              -17.61          25.51          19.44          39.97         -17.71         -1.382          68.57          9.243         -97.31          14.95          16.95
    0.2378              -17.63          25.52          19.43          39.97          -17.7         -1.388          68.49          9.255         -97.22          14.95          16.97
    0.2536              -17.64          25.52          19.43          39.97         -17.69         -1.395           68.4          9.269         -97.11          14.95          16.98
    0.2695              -17.66          25.53          19.42          39.96         -17.69         -1.402           68.3          9.284          -97.0          14.96           17.0
    0.2853              -17.68          25.53          19.41          39.96         -17.68         -1.409          68.19            9.3         -96.88          14.96          17.01
    0.3012               -17.7          25.54           19.4          39.96         -17.67         -1.417          68.07          9.317         -96.74          14.97          17.03
     0.317              -17.72          25.54          19.39          39.96         -17.66         -1.427          67.94          9.337         -96.59          14.98          17.05
    0.3329              -17.74          25.55          19.38          39.95         -17.66         -1.437           67.8          9.358         -96.43          14.98          17.08
    0.3487              -17.77          25.56          19.37          39.95         -17.65         -1.448          67.64          9.382         -96.24          14.99           17.1
    0.3646               -17.8          25.57          19.36          39.95         -17.63          -1.46          67.47          9.408         -96.04           15.0          17.13
    0.3804              -17.83          25.58          19.34          39.94         -17.62         -1.474          67.27          9.437         -95.82          15.01          17.16
    0.3963              -17.87          25.59          19.33          39.94         -17.61         -1.489          67.05           9.47         -95.57          15.02          17.19
    0.4121              -17.91           25.6          19.31          39.93         -17.59         -1.506          66.81          9.506         -95.29          15.03          17.23
     0.428              -17.96          25.62          19.29          39.93         -17.57         -1.526          66.54          9.547         -94.98          15.04          17.27
    0.4438              -18.01          25.64          19.27          39.92         -17.55         -1.547          66.23          9.593         -94.62          15.06          17.32
    0.4597              -18.07          25.65          19.24          39.91         -17.53         -1.572          65.88          9.645         -94.22          15.07          17.38
    0.4755              -18.13          25.68          19.21           39.9          -17.5           -1.6          65.48          9.705         -93.76          15.09          17.44
    0.4914              -18.21           25.7          19.18          39.89         -17.47         -1.633          65.02          9.774         -93.23          15.11          17.51
    0.5072               -18.3          25.73          19.14          39.88         -17.44          -1.67          64.49          9.853         -92.62          15.14           17.6
    0.5231              -18.41          25.76          19.09          39.87          -17.4         -1.713          63.87          9.946         -91.91          15.17          17.69
    0.5389              -18.53           25.8          19.04          39.85         -17.35         -1.764          63.15          10.05         -91.08           15.2          17.81
    0.5548              -18.67          25.85          18.97          39.84         -17.29         -1.824           62.3          10.18         -90.11          15.24          17.94
    0.5706              -18.84           25.9           18.9          39.82         -17.23         -1.895          61.28          10.33         -88.94          15.29           18.1
    0.5865              -19.05          25.96          18.81          39.79         -17.15         -1.981          60.07          10.51         -87.55          15.35          18.29
    0.6023               -19.3          26.04           18.7          39.76         -17.05         -2.084          58.61          10.73         -85.87          15.42          18.52
    0.6182               -19.6          26.14          18.56          39.72         -16.93          -2.21          56.81           11.0         -83.81           15.5           18.8
     0.634              -19.97          26.26           18.4          39.67         -16.79         -2.366           54.6          11.33         -81.27           15.6          19.15
    0.6499              -20.44           26.4          18.19          39.61         -16.61          -2.56          51.85          11.74         -78.11          15.73          19.58
    0.6658              -21.03          26.59          17.93          39.54         -16.38         -2.804          48.37          12.26         -74.12           15.9          20.12
    0.6816              -21.77          26.82           17.6          39.44         -16.09         -3.115          43.96          12.92         -69.05          16.11          20.82
    0.6975              -22.73          27.12          17.18          39.32         -15.72         -3.513          38.31          13.77         -62.56          16.37           21.7
    0.7133              -23.95          27.51          16.64          39.17         -15.24         -4.024          31.05          14.85         -54.23          16.71          22.84
    0.7292              -25.52           28.0          15.95          38.97         -14.63         -4.676          21.79          16.23         -43.59          17.15          24.29
     0.745              -27.49          28.63          15.08          38.72         -13.86         -5.496          10.14          17.97         -30.21           17.7          26.12
    0.7609              -29.89          29.38          14.01          38.42         -12.93         -6.495         -4.052          20.09         -13.91          18.37          28.35
